<svg viewBox="0 0 359.29 117.18" xmlns="http://www.w3.org/2000/svg"><g fill="#302933"><path d="m80.49 38.33a9.44 9.44 0 0 0 -7.83-1.59c-3.81.78-5.8 4.28-6.13 7.83a1.69 1.69 0 0 0 0 .45c.46 2.27-.49 3.44-2.65 4.27a40.55 40.55 0 0 1 -10.31 3 22.69 22.69 0 0 1 -2.34 0c0-2.59.11-5 0-7.39-.21-3.77-2.25-7.06-6.09-8-4.73-1.2-9.67.75-10.85 6.82a22.05 22.05 0 0 0 -.29 4.01v22.86a7.32 7.32 0 0 1 -4.25 7.11 7.42 7.42 0 0 1 -8.23-.89 6.72 6.72 0 0 1 -2.75-5.5c0-7.58-.06-15.17 0-22.75a14.33 14.33 0 0 0 -6.77-12.89 7.24 7.24 0 0 1 -3-8.27 7.53 7.53 0 0 1 7.31-5.4c2.89.09 5.37 1.47 7.69 3.1.83.59 1.6 1.28 2.36 1.9 10.87-8.23 21.66-8 32.56.15a23.47 23.47 0 0 1 18.33-6.07c5.19.39 9.67 2.65 13.92 6.1z"/><path d="m171 27v-11.94a6.77 6.77 0 0 1 7-6.81 6.62 6.62 0 0 1 6.69 6.84c0 11.39-.06 22.79 0 34.18a24.62 24.62 0 0 1 -5.08 15.45 25.51 25.51 0 0 1 -16.61 10.19 24.12 24.12 0 0 1 -19.25-5.06 25 25 0 0 1 -9.84-16 24 24 0 0 1 4.43-18.62 25.91 25.91 0 0 1 17.25-10.69 24.21 24.21 0 0 1 13.8 1.88l1.24.55s.1.03.37.03zm-23.66 22.78c-.25 6.49 5.77 11.6 11.48 11.79 5.92.2 12.15-5 12.11-11.82a11.7 11.7 0 0 0 -11.79-11.75c-6.89 0-12.05 6.06-11.8 11.78z"/><path d="m263.86 41.56c5.48-5.47 10.68-10.73 16-15.89a8.51 8.51 0 0 1 3.14-1.88 7.17 7.17 0 0 1 7.8 2.88 6.58 6.58 0 0 1 -.42 8.22c-2.52 2.79-5.24 5.42-7.88 8.11-.86.87-1.75 1.69-2.68 2.59l5.69 9.52c1.85 3.09 3.68 6.19 5.57 9.26a7.07 7.07 0 0 1 -4.48 10.71 6.81 6.81 0 0 1 -7.11-2.7c-3.17-5.09-6.23-10.24-9.33-15.37l-.57-.94c-1.82 1.78-3.62 3.52-5.38 5.31a1.85 1.85 0 0 0 -.32 1.14v5.83a6.71 6.71 0 0 1 -3.81 6 6.37 6.37 0 0 1 -6.9-.28 7 7 0 0 1 -3.44-6.28q0-26.28 0-52.57a7.37 7.37 0 0 1 6-7.22 7 7 0 0 1 8 5.36 5.11 5.11 0 0 1 .11 1.24q0 12.67 0 25.37z"/><path d="m347.88 58.43v10.06a6.85 6.85 0 0 1 -4.67 6.36 6.54 6.54 0 0 1 -7.36-2.12c-.5-.64-.87-.84-1.66-.42a24.75 24.75 0 0 1 -14.86 2.69 24.3 24.3 0 0 1 -15.47-7.86 24.3 24.3 0 0 1 -6.92-19.66 25.47 25.47 0 0 1 20.2-22.7c13.71-2.84 26.52 5.33 30 18.88a29.64 29.64 0 0 1 .7 6.18c.16 2.88.04 5.74.04 8.59zm-25.54 3.1a11.6 11.6 0 0 0 11.8-11.73 12 12 0 0 0 -11.84-11.86c-6.14-.06-11.8 5.67-11.72 11.87.08 6.75 6.29 11.87 11.76 11.72z"/><path d="m191.53 41.66c0-3.7-.09-7.4 0-11.09a6.28 6.28 0 0 1 4.54-5.94 6.42 6.42 0 0 1 7.18 1.76 6.81 6.81 0 0 1 2 4.94v18.67a11.87 11.87 0 0 0 10.33 11.51 11.61 11.61 0 0 0 12.72-8.08 13.06 13.06 0 0 0 .38-3.37q0-9 0-18.06a7.34 7.34 0 0 1 3.4-6.69 6.24 6.24 0 0 1 6.8-.22 6.52 6.52 0 0 1 3.67 5.87c0 6.59.08 13.18 0 19.78-.09 6.91-2.93 12.68-7.84 17.46a24.39 24.39 0 0 1 -13.41 6.7c-8.26 1.3-15.6-.71-21.77-6.49a24.71 24.71 0 0 1 -7.59-13.32 26.5 26.5 0 0 1 -.44-4.63c-.06-2.93 0-5.87 0-8.8z"/></g><path d="m46 46.63v4c.15 3.15 2.29 5.16 6.14 5a26.64 26.64 0 0 0 9.05-2.42 106.88 106.88 0 0 0 28-16.79 89.5 89.5 0 0 0 15.55-16.8 10.74 10.74 0 0 1 3.71-3.22 5.26 5.26 0 0 1 7.7 5.23 10.4 10.4 0 0 1 -2.79 6.45c-1.81 2.06-3.56 4.18-5.51 6.11-10.3 10.2-22 18.28-35.82 23a94.9 94.9 0 0 1 -12.47 3.37 18.91 18.91 0 0 1 -10.12-.71 6.86 6.86 0 0 1 -4.69-7.87c.18-1.23.46-2.45.75-3.66a17.48 17.48 0 0 1 .65-1.79z" fill="#fa6600"/><path d="m50.79 61.5c5.6 2.8 11.36 2.27 17.09.67 6.64-1.85 12.63-5.18 18.54-8.61a157.45 157.45 0 0 0 18.23-12.56c2.53-2 5-4.06 7.52-6.09a7.25 7.25 0 0 1 6-1.66c3.2.57 4.63 4.12 2.67 7.06a17 17 0 0 1 -4.09 3.88c-3.36 2.48-6.76 4.94-10.31 7.14-10 6.23-20.29 12-31.62 15.69a33.39 33.39 0 0 1 -10.82 1.69c-3.6 0-7.17-.62-10.06-3a34.78 34.78 0 0 1 -3.54-3.91z" fill="#fa6600"/><path d="m98.9 59.86v1.61c0 3.46 0 6.93-.12 10.38-.17 3.72-3.4 6.53-7.36 6.64a7.46 7.46 0 0 1 -7.62-6.15 33.26 33.26 0 0 1 0-4.79.93.93 0 0 1 .46-.64c4.8-2.39 9.62-4.75 14.43-7.12-.03-.01.02.02.21.07z" fill="#302933"/><path d="m66.49 71.14a7.63 7.63 0 0 1 -15.25-.4v-4.55c4.42 3.9 9.59 5.13 15.25 4.95z" fill="#302933"/><text fill="#808080" font-family="Gotham-Bold, Gotham" font-size="32.86" font-weight="700" transform="translate(224.06 107.61)">Courier</text></svg>