<svg viewBox="0 0 391.76 302.82" xmlns="http://www.w3.org/2000/svg" xmlns:xlink="http://www.w3.org/1999/xlink"><linearGradient id="a" gradientTransform="matrix(.99999123 .00418878 -.00418878 .99999123 1.09 -1.06)" gradientUnits="userSpaceOnUse" x1="249.19" x2="262.08" y1="262.81" y2="262.81"><stop offset="0" stop-color="#60a1e3"/><stop offset="1" stop-color="#5d5fd0"/></linearGradient><linearGradient id="b" x1="100.84" x2="113.73" xlink:href="#a" y1="262.2" y2="262.2"/><linearGradient id="c" gradientUnits="userSpaceOnUse" x1="74.87" x2="179.91" y1="242.03" y2="242.03"><stop offset="0" stop-color="#ff31c4"/><stop offset="1" stop-color="#9a2e9e"/></linearGradient><linearGradient id="d" gradientTransform="matrix(.99989253 .01466024 -.01466024 .99989253 2.76 -1.31)" gradientUnits="userSpaceOnUse" x1="69.77" x2="110.39" y1="186.86" y2="186.86"><stop offset="0" stop-color="#ffc572"/><stop offset="1" stop-color="#ff4eb3"/></linearGradient><linearGradient id="e" gradientTransform="matrix(.99989253 .01466024 -.01466024 .99989253 2.53 -1.3)" gradientUnits="userSpaceOnUse" x1="57.78" x2="97.97" y1="170.53" y2="170.94"><stop offset="0" stop-color="#ffc572"/><stop offset=".15" stop-color="#ffbc77"/><stop offset=".39" stop-color="#ffa584"/><stop offset=".69" stop-color="#ff7e99"/><stop offset="1" stop-color="#ff4eb3"/></linearGradient><linearGradient id="f" x1="146.74" x2="249.38" xlink:href="#c" y1="227.26" y2="227.26"/><linearGradient id="g" x1="171.36" x2="199.32" xlink:href="#d" y1="118.67" y2="118.67"/><linearGradient id="h" gradientUnits="userSpaceOnUse" x1="155.49" x2="179.9" y1="161.76" y2="172.35"><stop offset="0" stop-color="#92d2ff"/><stop offset="1" stop-color="#28a0ff"/></linearGradient><linearGradient id="i" x1="187.11" x2="177.08" xlink:href="#a" y1="186.88" y2="212.68"/><linearGradient id="j" x1="196.98" x2="183.05" xlink:href="#h" y1="151.76" y2="180.44"/><linearGradient id="k" gradientUnits="userSpaceOnUse" x1="335.43" x2="290.16" y1="271.93" y2="241.18"><stop offset="0" stop-color="#9593b9"/><stop offset=".21" stop-color="#9795c0"/><stop offset=".52" stop-color="#9c9bd3"/><stop offset=".88" stop-color="#a5a5f3"/><stop offset="1" stop-color="#a9a9ff"/></linearGradient><linearGradient id="l" x1="372.77" x2="329.01" xlink:href="#k" y1="202.28" y2="205.81"/><linearGradient id="m" x1="33.38" x2="100.84" xlink:href="#k" y1="51.61" y2="51.61"/><linearGradient id="n" x1="279.97" x2="355.66" xlink:href="#k" y1="112.91" y2="112.91"/><path d="m267.53 24.18c50.58 31 36.81 102.45 58.46 118.23 28.06 20.46 44.85 99.44-9.85 127.43-84.73 43.35-115.87-20.76-156.27-8.64-46 13.8-73.37 7.24-92.22-1.22-21.43-9.61-74.87-49.9-51.11-110.34s82.85-42.7 115-72.58c26-24.16 74.22-84.73 136-52.88z" fill="#dacce6"/><path d="m218.25 187.4 1.48-13.48 1-.02-1.34 13.48z" fill="#808285"/><path d="m222.16 185.33c.83-.35 7.55.22 7.55.22l-.23 12.51-2.56 1.07-6.86-2.78z" fill="#350fa2"/><path d="m230.66 191.34c.05 3.57-.85 6.6-1.18 6.72s-1-2.46-1-6 .84-6.47 1.28-6.48.84 2.19.9 5.76z" fill="#fff"/><path d="m84.18 216.51h3.36a0 0 0 0 1 0 0v7.74a0 0 0 0 1 0 0h-8.67a0 0 0 0 1 0 0v-2.43a5.3 5.3 0 0 1 5.31-5.31z" fill="#ff6f69" transform="matrix(.99989253 -.01466024 .01466024 .99989253 -3.24 1.25)"/><path d="m95.62 219.53-1.65-10.92 13.94-.2 14.07 9.06 2.76 6.16-29.45.44z" fill="#c132ae"/><g fill="#6099dc"><path d="m249.91 277.77a.74.74 0 0 1 -.25 0 .68.68 0 0 1 -.39-.89l11.46-28.55a.68.68 0 0 1 1.27.51l-11.45 28.55a.69.69 0 0 1 -.64.38z"/><path d="m269.91 269.22a.56.56 0 0 1 -.25-.05l-28.55-11.45a.69.69 0 0 1 .51-1.28l28.55 11.46a.68.68 0 0 1 -.26 1.32z"/><path d="m261.28 277.8a.68.68 0 0 1 -.64-.43l-11.28-28.62a.69.69 0 0 1 .39-.89.7.7 0 0 1 .89.39l11.28 28.62a.7.7 0 0 1 -.39.89.73.73 0 0 1 -.25.04z"/><path d="m241.33 269.13a.68.68 0 0 1 -.25-1.32l28.62-11.28a.69.69 0 0 1 .89.39.7.7 0 0 1 -.39.89l-28.62 11.28a.73.73 0 0 1 -.25.04z"/><path d="m266.67 274.21a.7.7 0 0 1 -.48-.19l-22.06-21.43a.68.68 0 0 1 0-1 .69.69 0 0 1 1 0l22.02 21.41a.69.69 0 0 1 0 1 .7.7 0 0 1 -.48.21z"/><path d="m244.92 274.53a.66.66 0 0 1 -.47-.19.68.68 0 0 1 0-1l21.43-22.07a.68.68 0 1 1 1 .95l-21.42 22.07a.7.7 0 0 1 -.54.24z"/><path d="m240.26 263.72a.69.69 0 1 1 0-1.37l30.74-.45a.69.69 0 0 1 0 1.37l-30.76.45z"/><path d="m255.86 278.87a.68.68 0 0 1 -.68-.67l-.45-30.76a.68.68 0 0 1 .67-.7.69.69 0 0 1 .7.68l.45 30.76a.68.68 0 0 1 -.68.69z"/></g><circle cx="255.64" cy="262.81" fill="url(#a)" r="6.44" transform="matrix(.99999123 -.00418878 .00418878 .99999123 -1.09 1.06)"/><path d="m258.43 262.77a2.79 2.79 0 1 1 -2.83-2.77 2.79 2.79 0 0 1 2.83 2.77z" fill="#350fa2"/><path d="m255.31 240.12a22.69 22.69 0 1 1 -22.36 23 22.69 22.69 0 0 1 22.36-23zm15.69 22.46a15.39 15.39 0 1 0 -15.16 15.61 15.4 15.4 0 0 0 15.16-15.61z" fill="#350fa2"/><path d="m112.92 215.33-25.44 1.11s-13.23 7.39-20.43 33.66l2.63-.28s3.47-20.52 17.84-30.17l33.05-.44z" fill="#c132ae"/><path d="m101.55 277.16a.56.56 0 0 1 -.25-.05.69.69 0 0 1 -.38-.89l11.45-28.55a.69.69 0 0 1 .9-.38.69.69 0 0 1 .38.89l-11.46 28.55a.68.68 0 0 1 -.64.43z" fill="#6099dc"/><path d="m121.56 268.62a.75.75 0 0 1 -.26-.05l-28.55-11.46a.68.68 0 0 1 .51-1.27l28.55 11.45a.69.69 0 0 1 .38.89.68.68 0 0 1 -.63.44z" fill="#6099dc"/><path d="m112.92 277.2a.7.7 0 0 1 -.64-.44l-11.28-28.62a.69.69 0 0 1 .38-.89.7.7 0 0 1 .89.39l11.28 28.62a.68.68 0 0 1 -.39.89.74.74 0 0 1 -.24.05z" fill="#6099dc"/><path d="m93 268.53a.68.68 0 0 1 -.63-.44.69.69 0 0 1 .38-.89l28.62-11.28a.7.7 0 0 1 .89.39.68.68 0 0 1 -.39.89l-28.65 11.28a.7.7 0 0 1 -.22.05z" fill="#6099dc"/><path d="m118.32 273.6a.66.66 0 0 1 -.48-.19l-22.07-21.41a.68.68 0 0 1 0-1 .69.69 0 0 1 1 0l22.07 21.43a.69.69 0 0 1 0 1 .68.68 0 0 1 -.52.17z" fill="#6099dc"/><path d="m96.57 273.92a.68.68 0 0 1 -.49-1.16l21.42-22.07a.69.69 0 0 1 1 0 .68.68 0 0 1 0 1l-21.44 22.02a.67.67 0 0 1 -.49.21z" fill="#6099dc"/><path d="m91.9 263.11a.69.69 0 0 1 0-1.37l30.76-.45a.73.73 0 0 1 .7.68.69.69 0 0 1 -.68.69l-30.76.45z" fill="#6099dc"/><path d="m107.51 278.27a.69.69 0 0 1 -.69-.68l-.45-30.76a.68.68 0 0 1 .68-.69.65.65 0 0 1 .69.67l.45 30.76a.68.68 0 0 1 -.67.7z" fill="#6099dc"/><circle cx="107.28" cy="262.2" fill="url(#b)" r="6.44"/><circle cx="107.28" cy="262.2" fill="#350fa2" r="2.79"/><path d="m107 239.52a22.69 22.69 0 1 1 -22.35 23 22.69 22.69 0 0 1 22.35-23zm15.67 22.48a15.39 15.39 0 1 0 -15.16 15.62 15.39 15.39 0 0 0 15.16-15.62z" fill="#350fa2"/><path d="m139.15 232c-9.8-11.8-30.26-8.12-47.27-8-6.7.06-12.47 4.89-17 10.71a49 49 0 0 0 -2.88 7.53c0 2.18 3.54 6.56 8.54 4.74 0 0 26.95-14.67 47.68 8.81l1.78 8.07 17.33 1.3c-.07-8.59-1.19-24.76-8.18-33.16z" fill="#753397"/><path d="m179.91 261.2-7.84-8.36-8.27-17.32s-1.23-12.07 3.75-17.05l-33.44.5-46.59.68s-7.38 4.2-12.65 15.1c4.54-5.82 10.31-10.65 17-10.71 17-.17 37.47-3.85 47.27 8 7 8.41 8.11 24.58 8.18 33.17l5.59.42z" fill="url(#c)"/><path d="m70.03 168.66h40.09v36.4h-40.09z" fill="url(#d)" transform="matrix(.99989253 -.01466024 .01466024 .99989253 -2.74 1.35)"/><path d="m74.68 206.01h33.22v2.64h-33.22z" fill="#782388" transform="matrix(.99989253 -.01466024 .01466024 .99989253 -3.04 1.37)"/><path d="m69.8 168.66h40.09v4.4h-40.09z" fill="url(#e)" transform="matrix(.99989253 -.01466024 .01466024 .99989253 -2.51 1.34)"/><path d="m89.25 207.26h2.51v16.8h-2.51z" fill="#350fa2" transform="matrix(.99989253 -.01466024 .01466024 .99989253 -3.17 1.36)"/><path d="m229.85 260.46s7.67-17.73 40.84-21.11c0 0-11.42-14.55-38.09-5.48 0 0-9.17 17.88-2.75 26.59z" fill="#753397"/><path d="m248.87 244.41 7.99 18.63-1.67.7-8.89-21.24 1.48-.88z" fill="#5876d6"/><path d="m244.27 228.8 5.83 13.93-4.67 2.08-6-15.18a4.88 4.88 0 0 1 4.84-.83z" fill="#350fa2"/><path d="m249.38 227.84.64-2s-10.11-18.81-23.1-26.73l-1.92 1.61z" fill="#350fa2"/><path d="m218.25 187.4-3.41 7.6 1.65 8.87a63.48 63.48 0 0 1 11.2 20.64s-17.06 26.59-24.89 30.56c0 0-16.75 1.59-28.54-1.42l-2.19-.81s2.31 3.32 2.15 4.08-9.49 4.5-27 1.91a9.41 9.41 0 0 0 .09 6.33l71.62 4s11.17-33.38 30.43-41.34c-5.87-10.48-13.63-19.94-24.4-30.35l-2.82-12.16z" fill="url(#f)"/><path d="m218.25 187.4s-3.25-.4-4.25 2.08 2.21 4.83 2.21 4.83l2.64-5.58z" fill="#350fa2"/><path d="m217.8 191.4-4.61 2.45.57 2.8 5.17-3a1.56 1.56 0 0 0 .53-1.43 1.13 1.13 0 0 0 -1.66-.82z" fill="#414042"/><path d="m161.69 220.45 8-1.73a1.89 1.89 0 0 0 1.51-1.8c.1-2.73-.3-8.31-5-9.37-5.21-1.19-40.54-2.45-52.15-2.84a7.31 7.31 0 0 0 -7.21 4.92c-1.11 3.34.17 7.48 11.06 9.57 20.1 3.86 43.79 1.25 43.79 1.25z" fill="#350fa2"/><path d="m219.68 170.52-.42 7.66a4.32 4.32 0 0 0 3-3.56 10.62 10.62 0 0 0 -2.58-4.1z" fill="#350fa2"/><path d="m180 141-6.38-6.17a24.66 24.66 0 0 0 5.6-9.05l6.52 8a17.84 17.84 0 0 0 -5.74 7.22z" fill="#f8a595"/><path d="m195.25 127.66s.71 4.32 1 6.07l-2.62-.3z" fill="#f8a595"/><path d="m194.85 132.79c-.29 1.19-1.83 4.94-1.83 4.94a3.92 3.92 0 0 1 -3.39 1 13.37 13.37 0 0 1 -8.79-4.71 16.51 16.51 0 0 1 -3.76-9.33c-.36-4.31 1.22-9.21 5.14-11.06s11.31-.44 13.67 3.46c2.47 4.11-.01 11.43-1.04 15.7z" fill="#f7a08c"/><path d="m198.22 116.67 5.75 3.93-.08.77-12.38-1.42z" fill="#350fa2"/><path d="m204.12 192.78a9 9 0 0 0 6.75 2.32 1.7 1.7 0 0 1 1.09-2.18 2.07 2.07 0 0 1 2.31 1 2.61 2.61 0 0 1 -.23 2.61 14.22 14.22 0 0 0 -2.35-.1c.5 1.72 2.65 2.52 4.39 2.11a9.26 9.26 0 0 0 4.38-3 1.67 1.67 0 0 0 .49-.77 1.75 1.75 0 0 0 -.43-1.23 26.28 26.28 0 0 0 -3.81-4.28 3.47 3.47 0 0 0 -1.41-.87 4.11 4.11 0 0 0 -1.77.13c-2.24.45-5.37-.14-7.58-.72z" fill="#f7a08c"/><path d="m193.52 119.55c0 .25-5 11.33-5 11.33l-15.4-1.77s-7.29-20.34 7.89-22.4 18.07 9.17 18.32 10.34-5.81 2.5-5.81 2.5z" fill="url(#g)"/><path d="m187.65 138.4-2.36-.89.97-8.41 2.42.28z" fill="#350fa2"/><path d="m192.46 250.31-2.17 8.29-.47 4.06 25.62 2.94a5 5 0 0 0 -3.72-5.28l-5.49-1.62-4.35-5.15-.39-1.78z" fill="#350fa2"/><path d="m168.78 194.62c1.53-.43 2.89-.79 4.1-1.09.59-2.12 12.47-45.53 7.09-52.49l-4.32-6.32s-9.41-6.4-19 21.89c-5.59 16.51-10.9 28.31-11.8 36.36 5.32 1.28 16.87 3.61 23.93 1.65z" fill="url(#h)"/><path d="m215.47 211c-.39-7.66-42.61-17.37-42.61-17.37v-.08c-1.21.27-2.57.6-4.08 1-7 1.78-18.6-.48-23.92-1.72-.6 5.34.49 11.27 5.82 13.45 12.82 5.26 48.72 10.4 48.72 10.4l-7.11 34.26 9.18.87s14.38-33.16 14-40.81z" fill="url(#i)"/><path d="m180.34 176.22q-1.07-11.85-2.12-23.69c-2.6-5.64-5.7-5.76-9.13-2.34a85.45 85.45 0 0 0 1.84 25.81 12.72 12.72 0 0 0 1.44 4 11.43 11.43 0 0 0 3.12 3c8.71 6.23 19.26 8.72 29.78 10.68.34-1.95 1-4.3 1.37-6.25-8.58-4.02-17.34-8.16-26.3-11.21z" fill="url(#j)"/><path d="m214.79 195.18a2.25 2.25 0 1 1 -2.28-2.22 2.24 2.24 0 0 1 2.28 2.22z" fill="#350fa2"/><path d="m13.32 216.59h50.71v.42h-50.71z" fill="#231f20"/><path d="m26.29 224.84h36.81v.42h-36.81z" fill="#231f20"/><path d="m29.39 208.6h36.81v.42h-36.81z" fill="#231f20"/><path d="m291.93 266.07a3.85 3.85 0 0 1 4.52-6.07 3.88 3.88 0 0 1 1-3.87 2.47 2.47 0 0 1 3.65.46 4.21 4.21 0 0 1 1.55-4.24 3.2 3.2 0 0 1 4.28.59c0-1.88.11-3.91 1.3-5.35s3.93-1.66 4.7 0a4.63 4.63 0 0 1 8.6.18 6.8 6.8 0 0 1 11.6 3c.12.48.29 1.08.78 1.17a1.54 1.54 0 0 0 .69-.13 3.65 3.65 0 0 1 3.83 1.65 10.81 10.81 0 0 1 1.43 4.2 3.14 3.14 0 0 1 4.93 2c1.08-.75 2.47-1.53 3.62-.89.5.28.83.78 1.31 1.08s1.26.32 1.48-.2a8.92 8.92 0 0 1 1.34 3.73 4.3 4.3 0 0 1 6.89 3.82z" fill="url(#k)"/><path d="m328.09 219.82a7.69 7.69 0 0 0 .68-7.06c-1.07-2.22-4-3.58-6.16-2.48a60.92 60.92 0 0 0 -1.34-19.13c-.8-3.44-2-7-4.84-9.18-4.26-3.3-11-1.85-14.45 2.29s-4 10.15-2.52 15.34c-3.8-1-8.38-.87-11 2-3 3.3-2.25 8.43-1.3 12.8.8 3.7 1.83 7.76 5 9.9-3.79.43-8.35 1.46-9.52 5.09a7.39 7.39 0 0 0 1.29 6.16c4 6 12 7.76 19.2 7.94h3.56a12.38 12.38 0 0 0 5.77-1.37c1.86-.78 3.8-1.36 5.69-2.09 3-1.14 6.16-2.71 7.57-5.74 1.5-3.22.49-7.66-2.68-9.24a20 20 0 0 0 5.05-5.23z" fill="#a9a9ff"/><path d="m308.42 265.93v-50.82a1.66 1.66 0 0 0 -3.32 0v50.82a1.66 1.66 0 0 0 3.32 0z" fill="#f8f5ff"/><path d="m308.7 231.35a13.7 13.7 0 0 0 7.5-8.77 1.67 1.67 0 1 0 -3.21-.89c-.11.41-.25.81-.4 1.21s.16-.34 0 0c-.05.1-.09.21-.14.31l-.27.52a12 12 0 0 1 -.66 1.08 2.83 2.83 0 0 1 -.2.28c-.05.08-.23.4 0 0a3.72 3.72 0 0 1 -.4.49c-.28.32-.58.62-.89.91l-.47.42a2.61 2.61 0 0 1 -.27.22c.16-.08.19-.15 0 0a12.17 12.17 0 0 1 -2.24 1.29 1.66 1.66 0 0 0 -.6 2.27 1.7 1.7 0 0 0 2.27.6z" fill="#f8f5ff"/><path d="m306.19 235.72c-1-.23-2-.46-2.91-.78l-.64-.22-.35-.14c.22.09 0 0-.08 0a10.07 10.07 0 0 1 -1.29-.71l-.27-.18c-.15-.11-.08-.07 0 0-.17-.14-.33-.28-.49-.44s-.32-.31-.46-.47-.26-.32-.12-.14-.1-.14-.1-.15c-.12-.17-.23-.36-.34-.55l-.11-.23c-.19-.38.1.32 0-.08-.06-.18-.12-.36-.17-.55a1.13 1.13 0 0 1 -.06-.32v.19a2.28 2.28 0 0 1 0-.26 1.66 1.66 0 0 0 -3.32 0 7.79 7.79 0 0 0 3.44 5.81 17.76 17.76 0 0 0 6.39 2.45 1.66 1.66 0 0 0 .88-3.21z" fill="#f8f5ff"/><path d="m376.77 211.57c-.24-2.57-2.89-5-5.59-4.39-1.48.32-3.33 1.32-4.25.2 2.93-2.74 5.92-5.56 7.57-9.1s1.67-8-1.05-10.9-8.51-3-10.62.3a38.68 38.68 0 0 0 -.07-19.67c-.86-3.21-2.22-6.44-4.84-8.65s-6.77-3.12-9.8-1.38a9.72 9.72 0 0 0 -3.72 4.42c-2.84 5.86-2.74 12.55-2.28 19-2.09-2.59-6.9-1.83-8.94.81s-1.86 6.28-.78 9.37 2.93 5.89 4 9c-1.69-1.68-5-.87-6.38 1.06s-1.32 4.45-.9 6.74a27.3 27.3 0 0 0 8.28 14.87c-2-1.83-5.68-1-7.43 1s-2 4.93-1.7 7.55c1.15 10.14 8.5 19.84 25.86 19 6.76-.77 13.39-4.32 16.49-10s1.92-13.4-3.48-17.23c2-1.78 4.38-3.2 6.33-5s3.53-4.42 3.3-7z" fill="url(#l)"/><path d="m352.27 267.07v-78.58a1.66 1.66 0 0 0 -3.32 0v78.58a1.66 1.66 0 0 0 3.32 0z" fill="#f8f5ff"/><path d="m351.87 219a19.73 19.73 0 0 0 12.53-13.59 1.66 1.66 0 1 0 -3.2-.88 16.11 16.11 0 0 1 -3.71 6.9 17.32 17.32 0 0 1 -1.44 1.4 12.23 12.23 0 0 1 -1.55 1.17 16 16 0 0 1 -3.52 1.78 1.66 1.66 0 1 0 .89 3.2z" fill="#f8f5ff"/><path d="m349.33 232c-2.27-.34-3.93-2.18-5-4.13a11.56 11.56 0 0 1 -1.44-6.65 1.66 1.66 0 0 0 -3.32 0 14.81 14.81 0 0 0 2 8.5c1.48 2.51 3.91 5 6.93 5.48a1.72 1.72 0 0 0 2-1.16 1.67 1.67 0 0 0 -1.16-2z" fill="#f8f5ff"/><path d="m351.67 198.83a22.77 22.77 0 0 1 -2.11-1.94c-.34-.35-.67-.72-1-1.09l-.44-.54c-.07-.08-.22-.28-.08-.09-.07-.11-.15-.21-.23-.32a25.33 25.33 0 0 1 -1.55-2.41c-.23-.41-.44-.82-.64-1.24l-.33-.71c-.05-.11-.08-.19 0 0l-.18-.43a1.66 1.66 0 1 0 -3.2.88 25 25 0 0 0 7.42 10.27 1.66 1.66 0 0 0 2.34-2.35z" fill="#f8f5ff"/><path d="m93.12 55.93a8.16 8.16 0 0 0 -4.12 1.12 8.15 8.15 0 0 0 -7.7-5.5 8 8 0 0 0 -1.7.18 13 13 0 0 0 -25.12-.14c-.25 0-.51 0-.77 0a10.86 10.86 0 0 0 -5.44 1.41 9.76 9.76 0 0 0 -14.89 8.31h67.46a8.22 8.22 0 0 0 -7.72-5.38z" fill="url(#m)"/><path d="m95.94 106.54a8.69 8.69 0 0 1 4.35 1.18 8.58 8.58 0 0 1 8.11-5.79 8.84 8.84 0 0 1 1.79.19 13.66 13.66 0 0 1 26.47-.15h.82a11.46 11.46 0 0 1 5.72 1.54 10.28 10.28 0 0 1 15.69 8.75h-71.09a8.68 8.68 0 0 1 8.14-5.72z" fill="#fff"/><path d="m288.63 117.75a9.1 9.1 0 0 1 4.63 1.26 9.14 9.14 0 0 1 8.64-6.17 9.31 9.31 0 0 1 1.91.2 14.55 14.55 0 0 1 28.18-.16h.87a12.09 12.09 0 0 1 6.09 1.64 10.95 10.95 0 0 1 16.71 9.32h-75.66a9.23 9.23 0 0 1 8.63-6.09z" fill="url(#n)"/><path d="m297.33 71.59h-71.09a10.27 10.27 0 0 1 13.76-9.67 11.36 11.36 0 0 1 11.54-2.23 7.19 7.19 0 0 1 9.65-1.21 12 12 0 0 1 21.61 4.24 8.67 8.67 0 0 1 14.51 8.87z" fill="#fff"/></svg>